<svg xmlns="http://www.w3.org/2000/svg" xmlns:xlink="http://www.w3.org/1999/xlink" viewBox="0 0 160.731 293.194"><defs><style>.a{fill:url(#a);}.b{fill:#0079c0;}.c,.d,.f,.g{stroke:#f6f400;stroke-width:0.656px;}.c{fill:url(#b);}.d{fill:url(#c);}.e{fill:url(#d);}.f{fill:url(#e);}.g{fill:url(#f);}.h{fill:url(#g);}.i{fill:#812000;}.j{fill:url(#h);}.k{opacity:0.4;}.l{fill:#fff;}</style><linearGradient id="a" x1="-3.401" y1="0.353" x2="-2.409" y2="0.437" gradientUnits="objectBoundingBox"><stop offset="0" stop-color="#9f0000"/><stop offset="0.495" stop-color="red"/><stop offset="0.588" stop-color="#f80000"/><stop offset="0.715" stop-color="#e70000"/><stop offset="0.862" stop-color="#ca0000"/><stop offset="1" stop-color="#a90000"/></linearGradient><linearGradient id="b" x1="-2.178" y1="-0.233" x2="-1.931" y2="-0.233" xlink:href="#a"/><linearGradient id="c" x1="-2.129" y1="-0.167" x2="-1.884" y2="-0.167" xlink:href="#a"/><linearGradient id="d" x1="-0.694" y1="1.628" x2="0.097" y2="1.628" xlink:href="#a"/><linearGradient id="e" x1="0.023" y1="0.452" x2="0.665" y2="0.452" xlink:href="#a"/><linearGradient id="f" x1="2.62" y1="0.877" x2="2.868" y2="0.877" xlink:href="#a"/><linearGradient id="g" x1="0.789" y1="0.855" x2="0.278" y2="0.228" gradientUnits="objectBoundingBox"><stop offset="0" stop-color="#d98322"/><stop offset="0.008" stop-color="#d27a1d"/><stop offset="0.034" stop-color="#c16412"/><stop offset="0.064" stop-color="#b4520a"/><stop offset="0.101" stop-color="#aa4604"/><stop offset="0.151" stop-color="#a53f00"/><stop offset="0.283" stop-color="#a43e00"/><stop offset="0.575" stop-color="#c87317"/><stop offset="1" stop-color="#ab4804"/></linearGradient><linearGradient id="h" x1="0" y1="0.5" x2="1" y2="0.5" xlink:href="#g"/></defs><g transform="translate(-341.072 -143.675)"><path class="a" d="M501.235,424.329l-28.223-14.41-15.358,23.855-54.17-161.133,43.581-9.443Z"/><path class="b" d="M492.7,419.852l.1.286,6.557-1.421-.1-.286Z"/><path class="b" d="M455.672,427.875l.1.285,6.6-1.43-.1-.286Z"/><path class="c" d="M403.484,272.641l54.17,161.133,2.082-3.236L406.438,272Z"/><path class="d" d="M444.11,263.836l53.3,158.54,3.828,1.953L447.065,263.2Z"/><path class="e" d="M399.914,436.116l-17.852-22.882-26.422,16.245,36.091-164.758L436,271.355Z"/><path class="b" d="M394.511,429.38l6.659,1,.064-.292-6.66-1Z"/><path class="b" d="M356.9,423.741l6.707,1.007.064-.293-6.706-1Z"/><path class="f" d="M391.731,264.722,355.641,429.479l3.583-2.2,35.508-162.105Z"/><path class="g" d="M433,270.905l-35.51,162.107,2.421,3.1L436,271.355Z"/><path class="h" d="M499.727,206.329c1.1,5.053-4.683,10.847-4.586,15.828.1,5.133,6.066,10.709,5.177,15.649-.908,5.022-8.468,8.161-10.318,12.854-1.863,4.727,1.518,12.174-1.22,16.434s-10.912,4.286-14.437,7.948c-3.5,3.633-3.207,11.815-7.4,14.729-4.118,2.863-11.672-.247-16.381,1.8-4.571,1.986-7.434,9.653-12.488,10.754s-10.847-4.68-15.828-4.584c-5.135.1-10.709,6.068-15.647,5.174-5.023-.9-8.164-8.466-12.855-10.314-4.729-1.865-12.175,1.519-16.436-1.218s-4.284-10.915-7.947-14.439c-3.634-3.5-11.813-3.207-14.728-7.4-2.865-4.119.244-11.673-1.8-16.383-1.984-4.569-9.653-7.432-10.754-12.488s4.681-10.845,4.585-15.826c-.1-5.133-6.069-10.709-5.177-15.647.907-5.023,8.466-8.162,10.315-12.855,1.864-4.729-1.516-12.176,1.22-16.436s10.914-4.286,14.439-7.946c3.5-3.632,3.207-11.814,7.4-14.728,4.118-2.864,11.672.243,16.381-1.8,4.571-1.986,7.434-9.655,12.487-10.756s10.847,4.682,15.829,4.587c5.133-.1,10.71-6.069,15.647-5.177,5.024.906,8.163,8.466,12.854,10.316,4.73,1.863,12.176-1.517,16.438,1.219s4.282,10.914,7.944,14.439c3.634,3.5,11.815,3.208,14.73,7.4,2.863,4.117-.245,11.67,1.8,16.38C490.955,198.411,498.625,201.276,499.727,206.329Z"/><path class="i" d="M422.253,298.062a7.681,7.681,0,0,0-1.474.182h0c-3.675.784-7.635,4.042-11.472,4.892h0a7.073,7.073,0,0,1-2.765.1h0c-5.275-1.016-8.4-8.616-12.916-10.335h0c-4.511-1.839-11.971,1.58-16.491-1.246h0c-4.451-2.935-4.446-11.142-8-14.48h0c-3.441-3.394-11.653-3.071-14.77-7.445h0a7.038,7.038,0,0,1-1.064-2.556h0c-.824-3.843.491-8.8-.324-12.471h0a7.736,7.736,0,0,0-.443-1.411h0c-1.849-4.4-9.558-7.251-10.775-12.547h0c-1.1-5.324,4.728-11.123,4.579-15.891h0a7.644,7.644,0,0,0-.185-1.474h0c-.785-3.674-4.043-7.636-4.892-11.472h0a6.945,6.945,0,0,1-.1-2.766h0c1.014-5.273,8.615-8.4,10.332-12.913h0c1.842-4.512-1.578-11.971,1.249-16.492h0c2.934-4.453,11.138-4.445,14.478-8h0c3.393-3.44,3.072-11.651,7.447-14.768h0a7.006,7.006,0,0,1,2.553-1.064h0c3.844-.824,8.8.49,12.469-.323h0a7.72,7.72,0,0,0,1.414-.446h0c4.4-1.847,7.25-9.557,12.548-10.774h0c5.323-1.1,11.122,4.728,15.89,4.578h0a7.744,7.744,0,0,0,1.471-.183h0c3.674-.786,7.633-4.045,11.472-4.895h0a7.047,7.047,0,0,1,2.768-.093h0c5.273,1.015,8.4,8.614,12.914,10.333h0c4.513,1.839,11.971-1.58,16.494,1.246h0c4.449,2.935,4.443,11.141,7.993,14.479h0c3.441,3.393,11.653,3.074,14.773,7.445h0a7.091,7.091,0,0,1,1.06,2.553h0c.823,3.846-.492,8.8.319,12.469h0a7.357,7.357,0,0,0,.451,1.416h0c1.845,4.4,9.557,7.248,10.775,12.548h0c1.1,5.322-4.73,11.123-4.578,15.891h0a7.578,7.578,0,0,0,.18,1.469h0c.786,3.677,4.043,7.636,4.895,11.475h0a7.093,7.093,0,0,1,.1,2.766h0c-1.017,5.274-8.617,8.4-10.334,12.914h0c-1.84,4.514,1.58,11.973-1.248,16.492h0c-2.936,4.453-11.141,4.446-14.478,8h0c-3.394,3.441-3.071,11.65-7.446,14.77h0a7.075,7.075,0,0,1-2.557,1.06h0c-3.844.825-8.8-.492-12.468.322h0a7.777,7.777,0,0,0-1.414.447h0c-4.4,1.847-7.247,9.561-12.545,10.778h0c-5.323,1.094-11.125-4.732-15.891-4.58Zm28.181-6.788a8.033,8.033,0,0,1,1.533-.486h0c3.9-.836,8.861.482,12.468-.32h0a6.335,6.335,0,0,0,2.324-.963h0c4.009-2.708,3.749-10.862,7.351-14.689h0c3.712-3.77,11.862-3.826,14.4-7.9h0c2.645-4-.7-11.433,1.189-16.378h0c1.983-4.869,9.5-8.021,10.3-12.793h0a6.385,6.385,0,0,0-.094-2.515h0c-.771-3.613-4.03-7.578-4.892-11.474h0a8.253,8.253,0,0,1-.2-1.6h0c-.041-5.2,5.7-10.983,4.593-15.768h0c-.985-4.81-8.611-7.683-10.732-12.426h0a8.084,8.084,0,0,1-.492-1.535h0c-.836-3.9.482-8.863-.319-12.469h0a6.389,6.389,0,0,0-.961-2.323h0c-2.714-4.009-10.861-3.748-14.687-7.35h0c-3.774-3.711-3.826-11.86-7.9-14.4h0c-4-2.645-11.434.7-16.379-1.191h0c-4.867-1.981-8.022-9.5-12.8-10.3h0a6.4,6.4,0,0,0-2.515.088h0c-3.612.774-7.577,4.032-11.472,4.9h0a8.437,8.437,0,0,1-1.6.195h0c-5.2.042-10.983-5.7-15.767-4.592h0c-4.809.986-7.684,8.61-12.428,10.735h0a8.46,8.46,0,0,1-1.534.487h0c-3.9.835-8.86-.481-12.467.32h0a6.42,6.42,0,0,0-2.325.963h0c-4.007,2.711-3.747,10.861-7.352,14.687h0c-3.709,3.774-11.86,3.825-14.4,7.9h0c-2.647,4,.7,11.436-1.193,16.383h0c-1.98,4.865-9.5,8.018-10.3,12.794h0a6.321,6.321,0,0,0,.089,2.51h0c.773,3.614,4.031,7.576,4.9,11.475h0a8.114,8.114,0,0,1,.2,1.594h0c.044,5.2-5.694,10.986-4.589,15.768h0c.985,4.812,8.611,7.685,10.734,12.431h0a8.621,8.621,0,0,1,.485,1.529h0c.835,3.9-.48,8.864.319,12.472h0a6.5,6.5,0,0,0,.964,2.323h0c2.712,4.008,10.864,3.749,14.69,7.351h0c3.773,3.71,3.826,11.861,7.9,14.4h0c4,2.648,11.433-.694,16.378,1.191h0c4.868,1.982,8.023,9.505,12.8,10.3h0a6.47,6.47,0,0,0,2.513-.092h0c3.612-.773,7.574-4.032,11.472-4.894h0a8.23,8.23,0,0,1,1.6-.2h0c5.2-.043,10.985,5.7,15.769,4.592h0c4.809-.986,7.683-8.612,12.427-10.737Z"/><path class="j" d="M351.855,223.5A69.046,69.046,0,0,1,420.9,154.456h0A69.046,69.046,0,0,1,489.948,223.5h0A69.047,69.047,0,0,1,420.9,292.55h0A69.048,69.048,0,0,1,351.855,223.5Zm23.088-45.959A64.8,64.8,0,0,0,355.908,223.5h0a64.787,64.787,0,0,0,19.035,45.959h0A64.792,64.792,0,0,0,420.9,288.5h0a64.789,64.789,0,0,0,45.958-19.035h0A64.785,64.785,0,0,0,485.9,223.5h0a64.8,64.8,0,0,0-19.037-45.959h0A64.793,64.793,0,0,0,420.9,158.508h0a64.8,64.8,0,0,0-45.958,19.035Z"/><g class="k"><path class="l" d="M421.27,167.467a62.645,62.645,0,0,1,62.564,59.484q.076-1.572.078-3.158a62.642,62.642,0,1,0-125.285,0q0,1.587.08,3.158A62.644,62.644,0,0,1,421.27,167.467Z"/></g></g></svg>