<svg xmlns="http://www.w3.org/2000/svg" xmlns:xlink="http://www.w3.org/1999/xlink" viewBox="0 0 162.16 295.314"><defs><style>.a{fill:url(#a);}.b{fill:#0079c0;}.c,.d,.f,.g{stroke:#f6f400;stroke-width:0.656px;}.c{fill:url(#b);}.d{fill:url(#c);}.e{fill:url(#d);}.f{fill:url(#e);}.g{fill:url(#f);}.h{fill:url(#g);}.i{fill:#d34d00;}.j{fill:url(#h);}.k{opacity:0.7;}.l{fill:#fff;}</style><linearGradient id="a" x1="-2.987" y1="0.729" x2="-1.995" y2="0.814" gradientUnits="objectBoundingBox"><stop offset="0" stop-color="#9f0000"/><stop offset="0.495" stop-color="red"/><stop offset="0.588" stop-color="#f80000"/><stop offset="0.715" stop-color="#e70000"/><stop offset="0.862" stop-color="#ca0000"/><stop offset="1" stop-color="#a90000"/></linearGradient><linearGradient id="b" x1="-2.312" y1="0.099" x2="-2.066" y2="0.099" xlink:href="#a"/><linearGradient id="c" x1="-2.262" y1="0.167" x2="-2.016" y2="0.167" xlink:href="#a"/><linearGradient id="d" x1="-0.119" y1="1.376" x2="0.672" y2="1.376" xlink:href="#a"/><linearGradient id="e" x1="0.009" y1="0.344" x2="0.65" y2="0.344" xlink:href="#a"/><linearGradient id="f" x1="2.545" y1="0.654" x2="2.793" y2="0.654" xlink:href="#a"/><linearGradient id="g" x1="0.498" y1="-0.1" x2="0.992" y2="0.757" gradientUnits="objectBoundingBox"><stop offset="0" stop-color="#ffffd6"/><stop offset="0.1" stop-color="#ffff7f"/><stop offset="0.26" stop-color="#ffe74a"/><stop offset="0.54" stop-color="#ffd139"/><stop offset="1" stop-color="#e59116"/></linearGradient><linearGradient id="h" x1="0.848" y1="0.9" x2="0.157" y2="0.106" xlink:href="#g"/></defs><g transform="translate(-616.611 -189.675)"><g transform="translate(67 46)"><path class="a" d="M711.2,426.45l-28.221-14.41-15.359,23.853-54.17-161.129,43.581-9.444Z"/><path class="b" d="M702.664,421.973l.1.286,6.557-1.421-.1-.285Z"/><path class="b" d="M665.641,430l.1.285,6.6-1.43-.1-.285Z"/><path class="c" d="M613.453,274.765l54.17,161.129,2.081-3.235-53.3-158.535Z"/><path class="d" d="M654.079,265.96l53.3,158.537,3.827,1.953L657.034,265.32Z"/><path class="e" d="M609.884,438.236l-17.851-22.88L565.611,431.6,601.7,266.844l44.272,6.636Z"/><path class="b" d="M604.481,431.5l6.659,1,.065-.292-6.661-1Z"/><path class="b" d="M566.868,425.862l6.707,1.006.063-.293-6.705-1Z"/><path class="f" d="M601.7,266.844,565.611,431.6l3.583-2.2,35.509-162.1Z"/><path class="g" d="M642.972,273.029l-35.51,162.1,2.422,3.1,36.089-164.757Z"/></g><path class="h" d="M708.264,206.33c1.1,5.054-4.681,10.847-4.586,15.829.1,5.134,6.068,10.708,5.177,15.647-.906,5.023-8.466,8.161-10.316,12.853-1.863,4.729,1.518,12.176-1.22,16.437s-10.913,4.284-14.437,7.944c-3.5,3.637-3.208,11.817-7.4,14.731-4.117,2.865-11.671-.246-16.38,1.8-4.573,1.987-7.436,9.654-12.488,10.755s-10.846-4.681-15.829-4.584c-5.134.1-10.709,6.067-15.647,5.176-5.024-.9-8.162-8.466-12.854-10.316-4.729-1.864-12.174,1.518-16.436-1.218s-4.284-10.916-7.947-14.44c-3.633-3.5-11.814-3.207-14.728-7.4-2.864-4.119.244-11.672-1.8-16.382-1.985-4.571-9.654-7.433-10.754-12.487s4.681-10.848,4.585-15.83c-.1-5.135-6.069-10.708-5.177-15.646.906-5.023,8.466-8.162,10.315-12.855,1.864-4.729-1.518-12.174,1.219-16.436s10.915-4.284,14.44-7.946c3.5-3.633,3.207-11.814,7.4-14.728,4.119-2.864,11.672.244,16.381-1.8,4.572-1.986,7.435-9.654,12.489-10.755s10.844,4.681,15.828,4.585c5.133-.1,10.71-6.068,15.646-5.177,5.023.907,8.164,8.467,12.856,10.317,4.728,1.863,12.172-1.518,16.434,1.218s4.284,10.915,7.947,14.439c3.634,3.5,11.815,3.208,14.729,7.4,2.864,4.119-.246,11.672,1.8,16.38C699.494,198.413,707.162,201.276,708.264,206.33Z" transform="translate(67 46)"/><path class="i" d="M630.792,298.062a7.605,7.605,0,0,0-1.474.182h0c-3.674.785-7.636,4.043-11.473,4.892h0a7.016,7.016,0,0,1-2.765.1h0c-5.274-1.015-8.4-8.616-12.915-10.335h0c-4.513-1.839-11.972,1.58-16.492-1.245h0c-4.452-2.934-4.446-11.143-7.995-14.479h0c-3.441-3.394-11.652-3.073-14.772-7.446h0a7.078,7.078,0,0,1-1.064-2.557h0c-.823-3.843.492-8.8-.323-12.47h0a7.585,7.585,0,0,0-.442-1.411h0c-1.849-4.4-9.558-7.25-10.775-12.548h0c-1.1-5.323,4.726-11.123,4.578-15.89h0a7.539,7.539,0,0,0-.184-1.473h0c-.787-3.676-4.045-7.636-4.895-11.474h0a6.989,6.989,0,0,1-.092-2.764h0c1.014-5.275,8.615-8.4,10.332-12.915h0c1.842-4.512-1.578-11.971,1.249-16.492h0c2.935-4.452,11.138-4.445,14.478-7.995h0c3.393-3.441,3.074-11.652,7.446-14.769h0a7.026,7.026,0,0,1,2.555-1.064h0c3.842-.823,8.8.49,12.468-.322h0a7.708,7.708,0,0,0,1.413-.446h0c4.4-1.848,7.25-9.558,12.548-10.775h0c5.323-1.1,11.122,4.728,15.891,4.579h0a7.694,7.694,0,0,0,1.471-.183h0c3.674-.786,7.633-4.045,11.472-4.9h0a7.02,7.02,0,0,1,2.766-.094h0c5.275,1.015,8.4,8.615,12.916,10.334h0c4.513,1.84,11.971-1.581,16.493,1.246h0c4.449,2.935,4.443,11.141,7.994,14.479h0c3.442,3.392,11.653,3.073,14.773,7.446h0a7.1,7.1,0,0,1,1.06,2.554h0c.821,3.842-.494,8.8.319,12.467h0a7.3,7.3,0,0,0,.451,1.415h0c1.846,4.4,9.557,7.25,10.774,12.548h0c1.1,5.323-4.728,11.124-4.579,15.891h0a7.526,7.526,0,0,0,.183,1.472h0c.783,3.674,4.042,7.634,4.892,11.472h0a7.075,7.075,0,0,1,.1,2.766h0c-1.016,5.274-8.616,8.4-10.335,12.915h0c-1.839,4.514,1.58,11.972-1.246,16.492h0c-2.937,4.452-11.141,4.445-14.479,8h0c-3.393,3.441-3.071,11.651-7.445,14.77h0a7.051,7.051,0,0,1-2.558,1.062h0c-3.842.823-8.8-.493-12.468.32h0a7.492,7.492,0,0,0-1.413.449h0c-4.4,1.847-7.25,9.559-12.544,10.775h0c-5.326,1.1-11.126-4.728-15.892-4.579Zm28.179-6.786a8.089,8.089,0,0,1,1.534-.487h0c3.9-.835,8.862.481,12.47-.319h0a6.441,6.441,0,0,0,2.323-.964h0c4.008-2.709,3.749-10.861,7.348-14.69h0c3.714-3.77,11.865-3.824,14.4-7.894h0c2.644-4-.7-11.436,1.187-16.379h0c1.984-4.868,9.5-8.023,10.3-12.795h0a6.407,6.407,0,0,0-.091-2.516h0c-.773-3.61-4.033-7.575-4.894-11.472h0a8.272,8.272,0,0,1-.2-1.594h0c-.041-5.2,5.7-10.984,4.593-15.769h0c-.985-4.809-8.612-7.683-10.735-12.426h0a8.037,8.037,0,0,1-.488-1.536h0c-.836-3.9.481-8.863-.321-12.468h0a6.381,6.381,0,0,0-.961-2.323h0c-2.713-4.009-10.861-3.748-14.687-7.351h0c-3.774-3.711-3.827-11.86-7.9-14.4h0c-4-2.646-11.434.695-16.381-1.192h0c-4.868-1.98-8.02-9.5-12.793-10.3h0a6.382,6.382,0,0,0-2.515.089h0c-3.612.774-7.577,4.032-11.473,4.9h0a8.181,8.181,0,0,1-1.594.2h0c-5.2.042-10.983-5.7-15.767-4.592h0c-4.81.986-7.685,8.611-12.428,10.735h0a8.249,8.249,0,0,1-1.534.485h0c-3.9.837-8.863-.477-12.467.323h0a6.414,6.414,0,0,0-2.326.963h0c-4.008,2.71-3.746,10.861-7.35,14.688h0c-3.711,3.772-11.862,3.826-14.4,7.9h0c-2.647,4,.694,11.435-1.193,16.381h0c-1.98,4.866-9.5,8.02-10.3,12.794h0a6.327,6.327,0,0,0,.09,2.511h0c.771,3.613,4.031,7.577,4.895,11.474h0a8.21,8.21,0,0,1,.2,1.6h0c.042,5.2-5.7,10.984-4.59,15.767h0c.984,4.811,8.61,7.685,10.734,12.43h0a8.512,8.512,0,0,1,.485,1.529h0c.835,3.9-.479,8.864.32,12.47h0a6.473,6.473,0,0,0,.964,2.325h0c2.712,4.008,10.864,3.749,14.689,7.351h0c3.772,3.71,3.825,11.862,7.895,14.4h0c4,2.647,11.436-.694,16.381,1.192h0c4.869,1.98,8.023,9.5,12.793,10.3h0a6.442,6.442,0,0,0,2.515-.092h0c3.611-.774,7.574-4.031,11.472-4.894h0a8.23,8.23,0,0,1,1.6-.2h0c5.2-.041,10.984,5.7,15.768,4.593h0c4.809-.986,7.684-8.613,12.426-10.736Z" transform="translate(67 46)"/><g transform="translate(67 46)"><path class="j" d="M560.394,223.5a69.048,69.048,0,0,1,69.046-69.047h0A69.046,69.046,0,0,1,698.486,223.5h0A69.045,69.045,0,0,1,629.44,292.55h0A69.047,69.047,0,0,1,560.394,223.5Zm23.089-45.958A64.783,64.783,0,0,0,564.446,223.5h0a64.788,64.788,0,0,0,19.037,45.958h0A64.788,64.788,0,0,0,629.44,288.5h0A64.784,64.784,0,0,0,675.4,269.462h0A64.786,64.786,0,0,0,694.435,223.5h0A64.785,64.785,0,0,0,675.4,177.546h0a64.775,64.775,0,0,0-45.956-19.038h0a64.779,64.779,0,0,0-45.957,19.038Z"/></g><g class="k" transform="translate(67 46)"><path class="l" d="M628.57,167.109a62.646,62.646,0,0,1,62.564,59.484q.077-1.57.078-3.158a62.642,62.642,0,1,0-125.285,0q0,1.589.08,3.158A62.644,62.644,0,0,1,628.57,167.109Z"/></g></g></svg>